Coordinates
version=1
nRows=16
nColumns=33
inDegrees=yes

Units are S.I. units (second, meters, Newtons, ...)
Angles are in degrees.

endheader
time	ground_thorax_rot_x	ground_thorax_rot_y	ground_thorax_rot_z	ground_thorax_tx	ground_thorax_ty	ground_thorax_tz	clav_prot_r	clav_elev_r	scapula_abduction_r	scapula_elevation_r	scapula_upward_rot_r	scapula_winging_r	shoulder_elv_r	plane_of_elev_r	axial_rot_r	elbow_flexion_r	pro_sup_r	wrist_flex_r	wrist_dev_r	clav_prot_l	clav_elev_l	scapula_abduction_l	scapula_elevation_l	scapula_upward_rot_l	scapula_winging_l	shoulder_elv_l	plane_of_elev_l	axial_rot_l	elbow_flexion_l	pro_sup_l	wrist_flex_l	wrist_dev_l
      4.83000000	    -32.63443464	    -25.56137791	     32.73109637	    -99.97600783	    855.48226626	    -46.28295421	     27.24042052	    -45.00000000	     40.25900310	    -45.00000000	    -45.00000000	    249.94368168	   3317.06531286	     20.66402053	   -143.02899826	   2877.79688913	    153.22278361	     13.90014177	     14.91839619	     -4.26383001	     38.56129508	    -34.57426803	    -45.00000000	    -22.29168993	   5141.26618433	  -3343.07090246	    143.27711581	    179.99999979	   2878.76602211	   -316.55878107	     11.72498030	    -24.99999983
      4.84000000	    -32.57366664	    -25.62209422	     32.87371075	    -99.80219059	    854.88733418	    -46.24309784	     27.03021541	    -45.00000000	     40.18325932	    -45.00000000	    -45.00000000	    249.95903532	   3317.08800156	     20.60842974	   -142.75715262	   2877.71903227	    153.29785684	     14.11162957	     15.07392881	     -4.07114429	     38.73167496	    -34.45295127	    -45.00000000	    -22.22774895	   5141.05617784	  -3342.99240694	    143.46842705	    179.99999979	   2878.82909716	   -316.58807949	     11.79040624	    -24.99999983
      4.85000000	    -32.46161196	    -25.69747616	     33.09158894	    -99.58151977	    854.28040157	    -46.22407670	     27.07397613	    -45.00000000	     40.13856345	    -45.00000000	    -45.00000000	    249.98180068	   3317.03914033	     20.57486244	   -142.82114882	   2877.70811396	    153.40588954	     14.21574246	     14.96205998	     -4.19213575	     38.58656218	    -34.38474701	    -45.00000000	    -22.62847493	   5141.00065330	  -3343.05354837	    143.32315482	    179.99999979	   2878.83778899	   -316.61384214	     11.47699372	    -24.99999983
      4.86000000	    -32.30720059	    -25.81882917	     33.34862627	    -99.31841516	    853.66972308	    -46.21305066	     27.07076635	    -45.00000000	     40.08313425	    -45.00000000	    -45.00000000	    249.96147585	   3317.09869475	     20.61639120	   -142.77656598	   2877.69486514	    153.57317963	     14.43515196	     15.04171292	     -4.03603026	     38.65722707	    -34.21098511	    -45.00000000	    -22.89271574	   5140.76875338	  -3343.03445502	    143.44893865	    179.99999979	   2878.98889831	   -316.53005938	     11.46448263	    -24.99999983
      4.87000000	    -32.19705140	    -25.85221793	     33.39450125	    -99.01914978	    853.06535730	    -46.20583488	     27.05250804	    -45.00000000	     40.21225994	    -45.00000000	    -45.00000000	    249.98561836	   3316.95729389	     20.57780755	   -142.72646614	   2877.66053354	    153.79520724	     14.48959998	     14.83225299	     -4.20384577	     38.41424946	    -34.19086608	    -45.00000000	    -23.24329053	   5140.83597343	  -3343.22811216	    143.29810887	    179.99999979	   2879.02983239	   -316.49148410	     11.07238365	    -24.99999983
      4.88000000	    -32.03256508	    -25.98488921	     33.81049229	    -98.69045297	    852.47775076	    -46.19845219	     27.12599823	    -45.00000000	     39.92446394	    -45.00000000	    -45.00000000	    249.97493581	   3317.14606220	     20.61369453	   -142.80563084	   2877.74803714	    153.98481585	     14.75869125	     15.13472017	     -3.93710663	     38.72116246	    -34.04079341	    -45.00000000	    -23.37470228	   5140.45694675	  -3343.04453589	    143.48355600	    179.99999979	   2879.18203841	   -316.29000124	     11.29274391	    -24.99999983
      4.89000000	    -32.04160046	    -25.90819997	     33.76411625	    -98.33380190	    851.91145805	    -46.18881614	     27.12035655	    -45.00000000	     40.05332851	    -45.00000000	    -45.00000000	    249.90076455	   3316.90272609	     20.58737761	   -142.81808403	   2877.62778000	    154.25007628	     14.74927947	     14.76457536	     -4.15953128	     38.33978779	    -34.13127478	    -45.00000000	    -23.57221852	   5140.63836947	  -3343.25217859	    143.21294520	    179.99999979	   2879.20947261	   -316.21078538	     10.82299163	    -24.99999983
      4.90000000	    -31.90746685	    -26.11124796	     34.02024196	    -97.95111493	    851.38056435	    -46.17815370	     27.06221469	    -45.00000000	     40.14441330	    -45.00000000	    -45.00000000	    250.00328753	   3316.91666811	     20.45030969	   -142.87269857	   2877.67670287	    154.40759998	     15.02667658	     15.04510678	     -3.95820863	     38.63402379	    -33.95417465	    -45.00000000	    -23.70027696	   5140.34946624	  -3343.09591037	    143.41437241	    179.99999979	   2879.46307832	   -316.04192717	     10.88764994	    -24.99999983
      4.91000000	    -31.88349670	    -26.10899473	     33.97719370	    -97.53313575	    850.88886084	    -46.17082944	     27.18279437	    -45.00000000	     40.03348521	    -45.00000000	    -45.00000000	    249.87111360	   3316.75418033	     20.68192659	   -142.90928629	   2877.61152454	    154.53465180	     14.90672217	     14.54333956	     -4.18419563	     38.14522500	    -34.03835769	    -45.00000000	    -23.88160281	   5140.57129234	  -3343.28727442	    143.16733240	    179.99999979	   2879.46253136	   -315.96595225	     10.47687816	    -24.99999983
      4.92000000	    -31.66384597	    -26.46404539	     34.33295125	    -97.07125667	    850.44590571	    -46.17325523	     27.02369299	    -45.00000000	     40.24285377	    -45.00000000	    -45.00000000	    250.17872170	   3316.95612012	     20.30767365	   -143.01708924	   2877.68111212	    154.56369783	     15.30543073	     15.24884041	     -3.85218596	     38.86922139	    -33.84537900	    -45.00000000	    -23.88505114	   5140.22541950	  -3343.13974419	    143.57257315	    179.99999979	   2879.74428640	   -315.76092197	     10.75090416	    -24.99999983
      4.93000000	    -31.76403929	    -26.27612252	     34.15522556	    -96.54488007	    850.04852923	    -46.19169955	     27.16474989	    -45.00000000	     40.22304144	    -45.00000000	    -45.00000000	    249.94597954	   3316.65216722	     20.52876377	   -143.05279612	   2877.53618396	    154.59341085	     15.04729066	     14.74655529	     -4.15100352	     38.25543260	    -34.04161588	    -45.00000000	    -23.88440068	   5140.40792146	  -3343.35139478	    143.25192197	    179.99999979	   2879.75013863	   -315.67315982	     10.35579680	    -24.99999983
      4.94000000	    -31.53860564	    -26.51683457	     34.48499217	    -95.94893266	    849.70478810	    -46.23007204	     27.16797712	    -45.00000000	     40.26037417	    -45.00000000	    -45.00000000	    250.05405080	   3316.71658588	     20.42813664	   -143.21506525	   2877.68132045	    154.48101429	     15.26677313	     14.82733488	     -4.03229021	     38.54849006	    -33.71435093	    -45.00000000	    -23.89048873	   5140.09159671	  -3343.18154056	    143.28152640	    179.99999979	   2879.87501340	   -315.51962313	     10.41511247	    -24.99999983
      4.95000000	    -31.40895653	    -26.73687621	     34.63815176	    -95.27056822	    849.41016379	    -46.28885111	     27.34872314	    -45.00000000	     40.37208365	    -45.00000000	    -45.00000000	    249.96959584	   3316.61536387	     20.55711506	   -143.28349838	   2877.60804022	    154.39441555	     15.10763665	     14.58892846	     -4.33244177	     38.13870825	    -33.43810215	    -45.00000000	    -23.89863204	   5140.01085295	  -3343.14376655	    143.16424759	    179.99999979	   2880.05695511	   -315.47417004	     10.14360799	    -24.99999983
      4.96000000	    -31.41874190	    -26.73137117	     34.64138009	    -94.50053588	    849.15907846	    -46.36526250	     27.39665672	    -45.00000000	     40.23469701	    -45.00000000	    -45.00000000	    250.00936968	   3316.61964626	     20.65071087	   -143.33993997	   2877.57941644	    154.22207468	     15.18134205	     14.71349068	     -4.23246977	     38.28464737	    -33.92205976	    -45.00000000	    -23.86716381	   5140.22644493	  -3343.33456382	    143.30079586	    179.99999979	   2880.23772882	   -315.31967865	     10.19814468	    -24.99999983
      4.97000000	    -31.28024582	    -26.91136634	     34.82255621	    -93.63502448	    848.94558147	    -46.45420995	     27.42344739	    -45.00000000	     40.29928961	    -45.00000000	    -45.00000000	    250.07904807	   3316.60787027	     20.66912892	   -143.51739689	   2877.58351533	    154.01526710	     15.19314579	     14.73844658	     -4.33496545	     38.30905422	    -33.86352944	    -45.00000000	    -23.78613662	   5140.14915833	  -3343.30576230	    143.35349656	    179.99999979	   2880.44193327	   -315.23624051	     10.13439064	    -24.99999983
      4.98000000	    -31.02455123	    -27.21207657	     35.17794226	    -92.66908078	    848.76184564	    -46.54986033	     27.51000457	    -45.00000000	     40.51046930	    -45.00000000	    -45.00000000	    250.12858569	   3316.56522937	     20.59380192	   -143.69416232	   2877.56154713	    153.81241429	     15.20406414	     14.73047178	     -4.51972857	     38.32568219	    -33.66118100	    -45.00000000	    -23.73921901	   5139.90157248	  -3343.26614599	    143.48777130	    179.99999979	   2880.56610886	   -315.17416185	     10.08660151	    -24.99999983
